<svg width="113" height="73" viewBox="0 0 113 73" fill="none" xmlns="http://www.w3.org/2000/svg">
<path id="quote" d="M51.3294 25.6757C51.3294 39.9192 29.5191 62.7837 22.1864 70.6551C19.3661 73.6538 14.6656 73.6538 11.8453 70.8425C11.8453 70.8425 11.8453 70.8426 11.6572 70.6551C9.02496 68.0313 9.02496 63.7208 11.4692 60.9096C14.6656 57.7236 17.4859 54.1627 20.1181 50.7892C8.83694 48.1654 0 37.8577 0 25.6757C0 11.6197 11.4692 0 25.7587 0C40.0483 0 51.3294 11.4323 51.3294 25.6757ZM87.0533 0C72.9518 0 61.2945 11.4323 61.2945 25.6757C61.2945 38.0451 70.1314 48.3528 81.7887 50.7892C78.9684 54.3501 76.1481 57.7236 73.1398 60.9096C70.5075 63.7208 70.6955 67.8439 73.3278 70.6551C73.3278 70.6551 73.3278 70.6551 73.5158 70.8425C76.3361 73.8412 81.0366 73.6538 83.8569 70.6551C91.1897 62.9712 113 39.9192 113 25.6757C112.812 11.4323 101.343 0 87.0533 0Z" fill="#F5FBFF"/>
</svg>
